<?xml version="1.0" encoding="iso-8859-1"?>
<!-- Generator: Adobe Illustrator 19.0.0, SVG Export Plug-In . SVG Version: 6.00 Build 0)  -->
<!-- License: CC0. Made by SVG Repo: https://www.svgrepo.com/svg/269469/love-heart -->
<svg version="1.1" id="Layer_1" xmlns="http://www.w3.org/2000/svg" xmlns:xlink="http://www.w3.org/1999/xlink" x="0px" y="0px"
	 viewBox="0 0 512 512" style="enable-background:new 0 0 512 512;" xml:space="preserve">
<path style="fill:#FF738E;" d="M405.923,172.966c-4.514,75.17-52.799,120.08-95.399,159.703
	c-34.45,32.037-65.254,59.737-94.177,84.679l-11.807,10.177l-1.881,1.62l-72.777-66.759c-21.588-19.811-43.907-40.281-64.899-62.84
	c-12.936-13.897-24.169-27.261-34.346-40.866c-31.431-41.984-39.34-98.482-20.647-147.446C26.112,69.019,65.003,42.29,111.47,41.475
	c36.885-0.648,70.823,15.151,93.069,41.911c0.01,0.01,0.021,0.031,0.031,0.042c12.173-13.427,30.156-28.285,54.241-35.704
	c24.785-7.638,51.242-6.092,78.65,4.577C383.781,70.337,409.382,115.445,405.923,172.966z"/>
<path style="fill:#FF3C62;" d="M405.923,172.966c-4.514,75.17-52.799,120.08-95.399,159.703
	c-34.45,32.037-65.254,59.737-94.177,84.679l-11.807,10.177V83.387c0.01,0.01,0.021,0.031,0.031,0.042
	c12.173-13.427,30.156-28.285,54.241-35.704c24.785-7.638,51.242-6.092,78.65,4.577C383.781,70.337,409.382,115.445,405.923,172.966
	z"/>
<path style="fill:#85C9FF;" d="M511.761,272.922c-3.479,57.982-40.73,92.63-73.592,123.194
	c-26.572,24.712-50.333,46.08-72.641,65.317l-10.209,8.809l-0.355,0.303l-56.142-51.503c-16.656-15.276-33.865-31.075-50.061-48.473
	c-9.979-10.721-18.641-21.034-26.499-31.525c-24.242-32.392-30.344-75.975-15.914-113.737c12.434-32.57,42.423-53.185,78.273-53.812
	c27.857-0.491,53.541,11.191,70.698,31.054c0.387,0.428,0.752,0.867,1.118,1.306c9.394-10.365,23.259-21.818,41.848-27.544
	c19.111-5.883,39.518-4.702,60.667,3.532C494.687,193.76,514.425,228.555,511.761,272.922z"/>
<path style="fill:#00A6FF;" d="M511.761,272.922c-3.479,57.982-40.73,92.63-73.592,123.194
	c-26.572,24.712-50.333,46.08-72.641,65.317l-10.209,8.809V202.548c0.387,0.428,0.752,0.867,1.118,1.306
	c9.394-10.365,23.259-21.818,41.848-27.544c19.111-5.883,39.518-4.702,60.667,3.532C494.687,193.76,514.425,228.555,511.761,272.922
	z"/>
</svg>
