<svg xmlns="http://www.w3.org/2000/svg" viewBox="0 0 64 64" width="64" height="64">
  <rect width="64" height="64" rx="12" fill="#1a1025"/>
  <!-- Head -->
  <ellipse cx="32" cy="28" rx="20" ry="22" fill="#4ade80"/>
  <ellipse cx="32" cy="30" rx="17" ry="18" fill="#86efac"/>
  <!-- Eyes -->
  <ellipse cx="24" cy="26" rx="7" ry="9" fill="#1a1025"/>
  <ellipse cx="40" cy="26" rx="7" ry="9" fill="#1a1025"/>
  <ellipse cx="24" cy="26" rx="5" ry="7" fill="#166534"/>
  <ellipse cx="40" cy="26" rx="5" ry="7" fill="#166534"/>
  <circle cx="25.5" cy="23.5" r="2" fill="#4ade80"/>
  <circle cx="41.5" cy="23.5" r="2" fill="#4ade80"/>
  <!-- Mouth -->
  <path d="M28 38 Q32 42 36 38" fill="none" stroke="#166534" stroke-width="1.5" stroke-linecap="round"/>
  <!-- Antenna -->
  <line x1="24" y1="8" x2="20" y2="2" stroke="#4ade80" stroke-width="1.5"/>
  <circle cx="20" cy="2" r="2" fill="#c084fc"/>
  <line x1="40" y1="8" x2="44" y2="2" stroke="#4ade80" stroke-width="1.5"/>
  <circle cx="44" cy="2" r="2" fill="#c084fc"/>
  <!-- Body -->
  <rect x="24" y="48" width="16" height="10" rx="5" fill="#4ade80"/>
  <rect x="27" y="50" width="10" height="6" rx="3" fill="#86efac"/>
</svg>